{
    "asset" : {
        "copyright" : "fredy",
        "generator" : "Khronos glTF Blender I/O v1.6.16",
        "version" : "2.0"
    },
    "scene" : 0,
    "scenes" : [
        {
            "name" : "Scene",
            "nodes" : [
                0,
                1
            ]
        }
    ],
    "nodes" : [
        {
            "mesh" : 0,
            "name" : "Circle",
            "scale" : [
                0.7711243629455566,
                0.7711243629455566,
                0.7711243629455566
            ],
            "translation" : [
                -0.13195845484733582,
                -2.0213983058929443,
                0
            ]
        },
        {
            "mesh" : 1,
            "name" : "Circle.001",
            "scale" : [
                0.31751111149787903,
                0.31751111149787903,
                0.31751111149787903
            ],
            "translation" : [
                -0.1338939368724823,
                0.2500907778739929,
                0
            ]
        }
    ],
    "materials" : [
        {
            "doubleSided" : true,
            "name" : "Material.001",
            "pbrMetallicRoughness" : {
                "baseColorTexture" : {
                    "index" : 0
                },
                "metallicFactor" : 0,
                "roughnessFactor" : 0.5
            }
        },
        {
            "doubleSided" : true,
            "name" : "Material.002",
            "pbrMetallicRoughness" : {
                "baseColorFactor" : [
                    0.8000000715255737,
                    0.7182101607322693,
                    0.39144033193588257,
                    1
                ],
                "metallicFactor" : 0,
                "roughnessFactor" : 0.5
            }
        },
        {
            "doubleSided" : true,
            "name" : "Material.003",
            "pbrMetallicRoughness" : {
                "baseColorFactor" : [
                    0.3694136142730713,
                    0.01969906874001026,
                    0.025400077924132347,
                    1
                ],
                "metallicFactor" : 0,
                "roughnessFactor" : 0.5
            }
        }
    ],
    "meshes" : [
        {
            "name" : "Circle",
            "primitives" : [
                {
                    "attributes" : {
                        "POSITION" : 0,
                        "NORMAL" : 1,
                        "TEXCOORD_0" : 2
                    },
                    "indices" : 3,
                    "material" : 0
                }
            ]
        },
        {
            "name" : "Circle.001",
            "primitives" : [
                {
                    "attributes" : {
                        "POSITION" : 4,
                        "NORMAL" : 5,
                        "TEXCOORD_0" : 6
                    },
                    "indices" : 7,
                    "material" : 1
                },
                {
                    "attributes" : {
                        "POSITION" : 8,
                        "NORMAL" : 9,
                        "TEXCOORD_0" : 10
                    },
                    "indices" : 11,
                    "material" : 2
                }
            ]
        }
    ],
    "textures" : [
        {
            "sampler" : 0,
            "source" : 0
        }
    ],
    "images" : [
        {
            "bufferView" : 4,
            "mimeType" : "image/jpeg",
            "name" : "textura"
        }
    ],
    "accessors" : [
        {
            "bufferView" : 0,
            "componentType" : 5126,
            "count" : 982,
            "max" : [
                2.192751407623291,
                3.288572311401367,
                1.3507879972457886
            ],
            "min" : [
                -1.3934847116470337,
                0,
                -1.4078142642974854
            ],
            "type" : "VEC3"
        },
        {
            "bufferView" : 1,
            "componentType" : 5126,
            "count" : 982,
            "type" : "VEC3"
        },
        {
            "bufferView" : 2,
            "componentType" : 5126,
            "count" : 982,
            "type" : "VEC2"
        },
        {
            "bufferView" : 3,
            "componentType" : 5123,
            "count" : 1512,
            "type" : "SCALAR"
        },
        {
            "bufferView" : 5,
            "componentType" : 5126,
            "count" : 99,
            "max" : [
                0.9898214340209961,
                3.613492727279663,
                0.9594929814338684
            ],
            "min" : [
                -0.9898214340209961,
                0,
                -1
            ],
            "type" : "VEC3"
        },
        {
            "bufferView" : 6,
            "componentType" : 5126,
            "count" : 99,
            "type" : "VEC3"
        },
        {
            "bufferView" : 7,
            "componentType" : 5126,
            "count" : 99,
            "type" : "VEC2"
        },
        {
            "bufferView" : 8,
            "componentType" : 5123,
            "count" : 159,
            "type" : "SCALAR"
        },
        {
            "bufferView" : 9,
            "componentType" : 5126,
            "count" : 55,
            "max" : [
                0.0653742104768753,
                4.242273807525635,
                0.06337042897939682
            ],
            "min" : [
                -0.06537337601184845,
                3.613492727279663,
                -0.06604567915201187
            ],
            "type" : "VEC3"
        },
        {
            "bufferView" : 10,
            "componentType" : 5126,
            "count" : 55,
            "type" : "VEC3"
        },
        {
            "bufferView" : 11,
            "componentType" : 5126,
            "count" : 55,
            "type" : "VEC2"
        },
        {
            "bufferView" : 12,
            "componentType" : 5123,
            "count" : 93,
            "type" : "SCALAR"
        }
    ],
    "bufferViews" : [
        {
            "buffer" : 0,
            "byteLength" : 11784,
            "byteOffset" : 0
        },
        {
            "buffer" : 0,
            "byteLength" : 11784,
            "byteOffset" : 11784
        },
        {
            "buffer" : 0,
            "byteLength" : 7856,
            "byteOffset" : 23568
        },
        {
            "buffer" : 0,
            "byteLength" : 3024,
            "byteOffset" : 31424
        },
        {
            "buffer" : 0,
            "byteLength" : 59828,
            "byteOffset" : 34448
        },
        {
            "buffer" : 0,
            "byteLength" : 1188,
            "byteOffset" : 94276
        },
        {
            "buffer" : 0,
            "byteLength" : 1188,
            "byteOffset" : 95464
        },
        {
            "buffer" : 0,
            "byteLength" : 792,
            "byteOffset" : 96652
        },
        {
            "buffer" : 0,
            "byteLength" : 318,
            "byteOffset" : 97444
        },
        {
            "buffer" : 0,
            "byteLength" : 660,
            "byteOffset" : 97764
        },
        {
            "buffer" : 0,
            "byteLength" : 660,
            "byteOffset" : 98424
        },
        {
            "buffer" : 0,
            "byteLength" : 440,
            "byteOffset" : 99084
        },
        {
            "buffer" : 0,
            "byteLength" : 186,
            "byteOffset" : 99524
        }
    ],
    "samplers" : [
        {
            "magFilter" : 9729,
            "minFilter" : 9987
        }
    ],
    "buffers" : [
        {
            "byteLength" : 99712,
            "uri" : "data:application/octet-stream;base64,"
        }
    ]
}
